<?xml version="1.0" encoding="UTF-8" standalone="no"?>
<svg width="250px" height="174px" viewBox="0 0 250 174" version="1.1" xmlns="http://www.w3.org/2000/svg" xmlns:xlink="http://www.w3.org/1999/xlink">
    <!-- Generator: Sketch 39.1 (31720) - http://www.bohemiancoding.com/sketch -->
    <title>Logo</title>
    <desc>Created with Sketch.</desc>
    <defs></defs>
    <g id="Site" stroke="none" stroke-width="1" fill="none" fill-rule="evenodd">
        <g id="Splash" transform="translate(-387.000000, -301.000000)" fill="#EBF3FF">
            <g id="Logo" transform="translate(387.000000, 301.000000)">
                <path d="M128.182133,39.3037933 C125.935541,40.9168396 122.293495,40.9094589 120.058151,39.2950749 L69.1057903,2.49686595 C64.6290859,-0.736246339 61,1.1212789 61,6.64163012 L61,106.949851 C61,112.472053 64.305088,113.927318 68.3796511,110.202532 L86.3634731,93.7625189 C88.4041791,91.8969958 91.8654421,91.6949213 94.0988829,93.3144087 L120.073934,112.149144 C122.305376,113.767183 125.926429,113.756894 128.152386,112.133016 L154.687327,92.775279 C156.917491,91.148333 160.360483,91.3651832 162.367603,93.2503637 L180.312826,110.105351 C184.336763,113.884819 187.598808,112.470202 187.598808,106.949851 L187.598808,6.64163012 C187.598808,1.11942779 183.957589,-0.742817616 179.477818,2.47364456 L128.182133,39.3037933 Z" id="M-Copy-2"></path>
                <path d="M42.011041,137.206567 C40.2917279,138.584425 39.0209313,140.107322 38.0491457,141.630218 C35.358047,137.206567 30.4991187,133.943218 21.9773062,133.943218 C15.6980758,133.943218 11.7361805,138.076793 11.6614278,138.149312 L11.6614278,134.387395 L0,134.387395 L0,172.523257 L11.8109332,172.523257 C11.8109332,172.523257 11.7361805,158.454596 11.8109332,153.813388 C11.8109332,148.882105 15.6233231,144.966086 20.5570041,144.966086 C27.3595036,144.966086 29.5273331,148.084397 29.5273331,154.030945 L29.5273331,172.523257 L41.1140081,172.523257 L41.1140081,153.813388 C41.1140081,148.882105 44.9263979,144.966086 49.8600789,144.966086 C56.6625784,144.966086 58.830408,148.084397 58.830408,154.030945 L58.830408,172.523257 L70.417083,172.523257 L70.417083,154.030945 C70.417083,146.126388 67.7259843,136.118784 55.6160401,134.233293 C50.5328536,133.508104 45.7486781,134.233293 42.011041,137.206567 Z M86.5078107,138.149312 L86.5078107,134.387395 L74.9211356,134.387395 L74.9211356,172.523257 L86.6573161,172.523257 L86.6573161,153.813388 C86.7320689,148.882105 90.469706,144.966086 95.403387,144.966086 C102.280639,144.966086 104.373716,148.084397 104.373716,154.030945 L104.373716,172.523257 L115.960391,172.523257 L115.960391,154.030945 C115.960391,145.256161 112.596518,133.943218 96.8236891,133.943218 C90.5444587,133.943218 86.5825634,138.076793 86.5078107,138.149312 Z M154.334831,158.019483 C154.110573,157.004218 153.662056,156.061473 153.21354,155.191247 C152.241754,153.66835 150.970958,152.43553 149.176892,151.420265 C145.962524,149.607294 142.000629,148.954624 138.48725,148.446992 C134.525354,147.866841 131.385739,147.359209 131.385739,145.401199 C131.385739,142.500444 134.749613,141.920293 137.066948,141.920293 C139.010519,141.920293 143.570436,142.572963 143.570436,145.111124 L153.512551,145.111124 C153.512551,143.153114 153.138787,140.034803 149.326397,137.279086 C146.261535,135.10352 142.075381,133.943218 136.992195,133.943218 C127.947113,133.943218 120.546592,139.454652 120.546592,146.271426 C120.546592,149.607294 122.41541,152.290492 125.106509,153.813388 C127.947113,155.553841 131.310987,156.351549 134.450602,156.714143 C137.739722,157.149256 143.869447,158.019483 143.869447,161.572907 C143.869447,164.401143 139.608541,165.488926 137.440711,165.488926 C134.151591,165.488926 130.787717,163.820992 130.787717,160.412605 L119.873817,160.412605 C119.873817,162.950766 120.546592,165.706483 124.209476,169.332426 C125.704531,170.782804 127.648102,171.798068 129.741179,172.523257 C132.058514,173.393483 134.67486,173.828596 137.440711,173.828596 C139.758046,173.828596 142.000629,173.466002 144.093705,172.813332 C146.112029,172.233181 147.980848,171.362955 149.550656,170.202653 C151.195216,169.11487 152.466013,167.80953 153.363045,166.359153 C154.260078,164.836256 154.783348,163.240841 154.783348,161.572907 C154.783348,160.267568 154.633842,159.107266 154.334831,158.019483 Z M185.121847,142.931519 L185.121847,134.374292 L174.656463,134.374292 L174.656463,130 L162.621271,130 L162.621271,134.374292 L156.940063,134.374292 L156.940063,142.931519 L162.621271,142.931519 C162.621271,149.965849 162.621271,155.395701 162.621271,159.456757 C162.621271,168.449097 167.4802,175.628466 181.907479,173.162824 L181.907479,163.082701 C177.721325,163.010182 174.656463,163.082701 174.656463,155.758295 C174.656463,152.349908 174.656463,148.587991 174.656463,142.931519 L185.121847,142.931519 Z M200.78637,139.382133 L200.78637,134.242357 L189.274448,134.242357 L189.274448,172.3057 L200.78637,172.3057 L200.78637,155.046209 C200.78637,147.794322 205.570546,143.660746 211.102249,143.660746 C211.924529,143.660746 212.746809,143.733265 213.494336,143.878303 L213.494336,134.378331 C212.447798,134.088255 211.102249,133.943218 209.906205,133.943218 C203.402716,133.943218 201.309639,138.149312 200.78637,139.382133 Z M248.972055,158.019483 C248.747797,157.004218 248.29928,156.061473 247.850764,155.191247 C246.878978,153.66835 245.608182,152.43553 243.814116,151.420265 C240.599748,149.607294 236.637853,148.954624 233.124474,148.446992 C229.162578,147.866841 226.022963,147.359209 226.022963,145.401199 C226.022963,142.500444 229.386837,141.920293 231.704172,141.920293 C233.647743,141.920293 238.20766,142.572963 238.20766,145.111124 L248.149775,145.111124 C248.149775,143.153114 247.776011,140.034803 243.963621,137.279086 C240.898759,135.10352 236.712605,133.943218 231.629419,133.943218 C222.584337,133.943218 215.183816,139.454652 215.183816,146.271426 C215.183816,149.607294 217.052634,152.290492 219.743733,153.813388 C222.584337,155.553841 225.948211,156.351549 229.087826,156.714143 C232.376946,157.149256 238.506671,158.019483 238.506671,161.572907 C238.506671,164.401143 234.245765,165.488926 232.077935,165.488926 C228.788815,165.488926 225.424941,163.820992 225.424941,160.412605 L214.511041,160.412605 C214.511041,162.950766 215.183816,165.706483 218.8467,169.332426 C220.341755,170.782804 222.285326,171.798068 224.378403,172.523257 C226.695738,173.393483 229.312084,173.828596 232.077935,173.828596 C234.39527,173.828596 236.637853,173.466002 238.730929,172.813332 C240.749253,172.233181 242.618072,171.362955 244.18788,170.202653 C245.83244,169.11487 247.103237,167.80953 248.000269,166.359153 C248.897302,164.836256 249.420572,163.240841 249.420572,161.572907 C249.420572,160.267568 249.271066,159.107266 248.972055,158.019483 Z" id="Combined-Shape"></path>
            </g>
        </g>
    </g>
</svg>